<?xml version="1.0" encoding="utf-8"?>
<!-- Generator: Adobe Illustrator 16.0.0, SVG Export Plug-In . SVG Version: 6.00 Build 0)  -->
<!DOCTYPE svg PUBLIC "-//W3C//DTD SVG 1.1//EN" "http://www.w3.org/Graphics/SVG/1.1/DTD/svg11.dtd">
<svg version="1.1" id="Layer_1" xmlns="http://www.w3.org/2000/svg" xmlns:xlink="http://www.w3.org/1999/xlink" x="0px" y="0px"
	 width="3867.387px" height="917.292px" viewBox="0 0 3867.387 917.292" enable-background="new 0 0 3867.387 917.292"
	 xml:space="preserve">
<g>
	<path fill="#0D192D" d="M3361.418,43.126l236,0l236,0v73v73l-85,0l-85,0v338.5v338.503h-75.5h-75.5V527.625v-338.5h-75.5h-75.5v-73
		V43.126z"/>
	<path fill="#0D192D" d="M2839.17,43.197h398v148h-247l-0.135,127.205h247v148h-247l-0.125,399.726h-150.875L2839.17,43.197z"/>
	<g>
		<polygon fill="#0D192D" points="2385.271,0 2305.112,0 2224.954,0 2224.954,80.158 2224.954,160.316 2305.112,160.316 
			2385.271,160.316 2385.271,80.158 		"/>
		<polygon fill="#0D192D" points="2072.879,862.46 2148.203,889.876 2223.527,917.292 2250.943,841.968 2278.358,766.644 
			2203.035,739.228 2127.711,711.811 2100.295,787.136 		"/>
		<polygon fill="#0D192D" points="2770.836,458.047 2756.915,379.104 2742.995,300.167 2664.054,314.087 2585.113,328.005 
			2599.033,406.944 2612.952,485.885 2691.893,471.967 		"/>
		<polygon fill="#0D192D" points="2661.409,158.856 2600.005,107.332 2538.601,55.808 2487.075,117.212 2435.55,178.618 
			2496.956,230.142 2558.361,281.667 2609.885,220.261 		"/>
		<polygon fill="#0D192D" points="2662.341,757.578 2702.421,688.158 2742.499,618.739 2673.079,578.659 2603.66,538.581 
			2563.582,608.001 2523.503,677.419 2592.922,717.498 		"/>
		<polygon fill="#0D192D" points="2386.695,917.292 2462.02,889.876 2537.344,862.46 2509.928,787.136 2482.513,711.811 
			2407.188,739.23 2331.864,766.646 2359.28,841.97 		"/>
		<polygon fill="#0D192D" points="1867.724,618.737 1907.803,688.156 1947.883,757.576 2017.302,717.496 2086.721,677.416 
			2046.641,607.998 2006.562,538.579 1937.143,578.659 		"/>
		<polygon fill="#0D192D" points="1867.229,300.167 1853.311,379.104 1839.392,458.045 1918.331,471.965 1997.271,485.885 
			2011.19,406.942 2025.109,327.999 1946.169,314.083 		"/>
		<polygon fill="#0D192D" points="2071.624,55.808 2010.22,107.332 1948.815,158.856 2000.339,220.261 2051.863,281.667 
			2113.269,230.141 2174.674,178.614 2123.149,117.211 		"/>
	</g>
	<path fill="#0D192D" d="M1752.794,43.126v73v73c-52.479,0-98.329,0-136.191,0c-37.862,0-67.738,0-88.269,0
		c-10,0-19.086,1.34-27.262,4.02s-15.441,6.699-21.801,12.059s-11.129,11.062-14.309,17.105s-4.77,12.426-4.77,19.145
		s1.133,13.258,3.402,19.615s5.676,12.533,10.223,18.525c6.172,8,18.315,18.917,37.014,34.004
		c18.699,15.085,43.954,34.343,76.35,59.031c39.462,30.068,62.232,48.544,76.87,61.076c14.638,12.533,21.143,19.122,28.076,25.418
		c16.261,14.766,29.661,29.199,40.609,43.506c10.948,14.307,19.444,28.487,25.897,42.745c6.445,14.266,11.281,29.188,14.506,44.767
		c3.225,15.578,4.838,31.812,4.838,48.703c0,32.891-5.684,62.915-17.049,90.076c-11.365,27.161-28.412,51.458-51.139,72.896
		s-48.906,37.516-78.541,48.234s-62.725,16.078-99.271,16.078c-28.547,0-65.333,0-94.981,0c-29.649,0-52.161,0-52.161,0h-37.321
		h-37.321v-73v-73.001c38.321,0,82.091,0,122.554,0s77.62,0,102.713,0c13.094,0,25.086-1.656,36.032-5.221
		c10.945-3.564,20.844-9.037,29.75-16.67c8.906-7.625,15.59-15.844,20.047-24.655c4.457-8.811,6.688-18.213,6.688-28.205
		c0-9.079-1.68-18.161-5.039-27.245c-3.359-9.083-8.398-18.169-15.117-27.255c-6.719-9.079-17.48-20.567-32.283-34.464
		c-14.803-13.896-33.646-30.201-56.529-48.913c-43.586-35.602-79.899-62.391-108.494-85.116
		c-28.595-22.725-49.471-41.385-62.182-60.728c-12.719-19.344-22.254-38.668-28.609-57.969c-6.355-19.303-9.531-38.584-9.531-57.842
		c0-27.789,5.293-53.605,15.879-77.447s26.465-45.709,47.637-65.6s44.824-34.809,70.953-44.754s54.734-14.918,85.812-14.918
		c19.984,0,50.7,0,76.419,0c25.72,0,46.443,0,46.443,0h49.729H1752.794z"/>
	<g>
		<path fill="#0D192D" d="M898.759,720.127h45.347h45.219c0,0,124.113-0.289,124.113-127.151
			c0-126.861-124.113-126.574-124.113-126.574h-45.219l-45.347-0.215V720.127z M747.886,866.126V454.625v-411.5h62.85h162.724
			c36.5,0,217.427,0.071,217.427,211.535c0,87.128-66.197,122.462-66.197,122.462s135.771,53.523,135.771,215.998
			c0,272.863-255.902,273.006-288.215,273.006h-112.18H747.886z M898.759,191.196v126.975c0,0,15.226,0.195,32.166,0.316
			c16.94,0.123,35.586,0.123,42.41-0.363s70.626,0,70.626-63.464c0-63.464-61.837-63.464-70.626-63.464h-37.288H898.759z"/>
	</g>
	<path fill="#0D192D" d="M42.744,43.126h90.421h90.42c58.219,0,108.907,3.863,152.115,11.338s78.935,18.561,107.232,33.006
		c28.297,14.453,54.098,33.422,77.404,56.91s44.119,51.496,62.439,84.027s32.062,67.789,41.225,105.77
		c9.162,37.983,13.744,78.689,13.744,122.12c0,30.898-2.562,64.778-7.688,97.405c-5.125,32.63-12.812,64.006-23.062,89.905
		c-10.25,25.898-22.445,49.594-36.59,71.084c-14.145,21.491-30.238,40.777-48.285,57.854
		c-18.047,17.086-36.844,31.536-56.389,43.348s-39.838,20.988-60.877,27.527c-21.039,6.547-49.816,12.225-86.302,16.264
		c-36.486,4.039-80.682,6.443-132.557,6.443h-91.625H42.744V454.627V43.126z M193.744,189.126v265.501v265.5h35.42h35.42
		c35.016,0,65.29-3.521,90.753-9.043s46.117-13.047,61.89-21.055c15.773-8,30.113-18.735,43.018-32.2s24.373-29.661,34.404-48.582
		c10.031-18.922,17.555-44.26,22.57-71.784c5.016-27.522,7.523-57.229,7.523-84.885c0-42.571-5.973-80.368-17.918-113.392
		c-11.945-33.021-29.863-61.271-53.754-84.748c-21.523-21.102-49.497-37.43-83.987-48.482
		c-34.491-11.053-75.499-16.83-123.093-16.83h-26.124H193.744z"/>
</g>
</svg>
