<?xml version="1.0" encoding="utf-8"?>
<!-- Generator: Adobe Illustrator 16.0.0, SVG Export Plug-In . SVG Version: 6.00 Build 0)  -->
<!DOCTYPE svg PUBLIC "-//W3C//DTD SVG 1.1//EN" "http://www.w3.org/Graphics/SVG/1.1/DTD/svg11.dtd">
<svg version="1.1" id="Layer_1" xmlns="http://www.w3.org/2000/svg" xmlns:xlink="http://www.w3.org/1999/xlink" x="0px" y="0px"
	 width="1060px" height="1060px" viewBox="0 0 1060 1060" enable-background="new 0 0 1060 1060" xml:space="preserve">
<g>
	<rect x="440.553" y="18.186" fill="#0C192D" width="178.901" height="178.901"/>
	
		<rect x="296.044" y="837.715" transform="matrix(-0.9397 -0.342 0.342 -0.9397 430.6476 1930.262)" fill="#0C192D" fill-opacity="0.56" width="178.904" height="178.9"/>
	
		<rect x="856.64" y="367.323" transform="matrix(0.1737 0.9848 -0.9848 0.1737 1231.6272 -554.2619)" fill="#0C192D" fill-opacity="0.22" width="178.897" height="178.9"/>
	<polygon fill="#0C192D" fill-opacity="0.11" points="927.604,195.452 790.555,80.463 675.557,217.509 812.608,332.504 	"/>
	<polygon fill="#0D192C" fill-opacity="0.33" points="928.641,863.587 1018.088,708.654 863.161,619.199 773.707,774.137 	"/>
	<polygon fill="#0C192D" fill-opacity="0.45" points="621.038,1041.814 789.154,980.628 727.964,812.516 559.855,873.706 	"/>
	
		<rect x="74.648" y="651.941" transform="matrix(-0.5 -0.866 0.866 -0.5 -395.9045 1254.2134)" fill="#0C192D" fill-opacity="0.66" width="178.904" height="178.902"/>
	<polygon fill="#0C192D" fill-opacity="0.78" points="41.354,353.15 10.288,529.329 186.474,560.398 217.537,384.207 	"/>
	<polygon fill="#0C192D" fill-opacity="0.9" points="269.445,80.463 132.399,195.452 247.396,332.504 384.44,217.505 	"/>
</g>
</svg>
